<?xml version="1.0" encoding="UTF-8" standalone="no"?>
<svg
   height="42"
   viewBox="0 96 720 840"
   width="36"
   version="1.1"
   id="svg4"
   sodipodi:docname="cart.svg"
   xmlns:inkscape="http://www.inkscape.org/namespaces/inkscape"
   xmlns:sodipodi="http://sodipodi.sourceforge.net/DTD/sodipodi-0.dtd"
   xmlns="http://www.w3.org/2000/svg"
   xmlns:svg="http://www.w3.org/2000/svg">
  <defs
     id="defs8" />
  <sodipodi:namedview
     id="namedview6"
     pagecolor="#ffffff"
     bordercolor="#000000"
     borderopacity="0.25"
     inkscape:showpageshadow="2"
     inkscape:pageopacity="0.0"
     inkscape:pagecheckerboard="0"
     inkscape:deskcolor="#d1d1d1"
     showgrid="false" />
  <path
     d="m 59.999997,936 q -24,0 -42,-18 Q -3.359375e-6,900 -3.359375e-6,876 V 346 q 0,-24 18.000000359375,-42 18,-18 42,-18 H 170 Q 170,207 223,151.5 276,96 355,96 434,96 492,151.575 550,207.15 550,286 h 110 q 24,0 42,18 18,18 18,42 v 530 q 0,24 -18,42 -18,18 -42,18 z m 0,-60 H 660 V 346 H 59.999997 Z M 360,586 q 79,0 137,-58 58,-58 58,-137 h -60 q 0,55 -40,95 -40,40 -95,40 -55,0 -95,-40 -40,-40 -40,-95 h -60 q 0,79 58,137 58,58 137,58 z M 230,286 H 490 Q 490,231 452.5,193.5 415,156 360,156 305,156 267.5,193.5 230,231 230,286 Z M 59.999997,876 V 346 Z"
     id="path2"
     style="fill:#ffffff;fill-opacity:1" />
</svg>
